<svg id="visual" viewBox="0 0 900 600" width="900" height="600" xmlns="http://www.w3.org/2000/svg" xmlns:xlink="http://www.w3.org/1999/xlink" version="1.1"><g stroke-width="1" stroke-linejoin="bevel"><path d="M388 330L337 288L305 385Z" fill="#0b2332" stroke="#0b2332"></path><path d="M305 385L405 394L388 330Z" fill="#0c2736" stroke="#0c2736"></path><path d="M363 161L319 224L337 288Z" fill="#0d2a39" stroke="#0d2a39"></path><path d="M337 288L189 268L305 385Z" fill="#0b2332" stroke="#0b2332"></path><path d="M305 385L313 491L405 394Z" fill="#0e2e3d" stroke="#0e2e3d"></path><path d="M319 224L189 268L337 288Z" fill="#0c2736" stroke="#0c2736"></path><path d="M305 385L196 473L313 491Z" fill="#061723" stroke="#061723"></path><path d="M189 268L169 364L305 385Z" fill="#0a202e" stroke="#0a202e"></path><path d="M405 394L512 377L388 330Z" fill="#03141f" stroke="#03141f"></path><path d="M388 330L363 161L337 288Z" fill="#03141f" stroke="#03141f"></path><path d="M536 476L512 377L405 394Z" fill="#03141f" stroke="#03141f"></path><path d="M529 167L363 161L388 330Z" fill="#061723" stroke="#061723"></path><path d="M319 224L193 196L189 268Z" fill="#0d2a39" stroke="#0d2a39"></path><path d="M169 364L196 473L305 385Z" fill="#0a202e" stroke="#0a202e"></path><path d="M512 377L534 338L388 330Z" fill="#091d2a" stroke="#091d2a"></path><path d="M281 104L193 196L319 224Z" fill="#0c2736" stroke="#0c2736"></path><path d="M189 268L84 269L169 364Z" fill="#061723" stroke="#061723"></path><path d="M327 600L415 531L313 491Z" fill="#0d2a39" stroke="#0d2a39"></path><path d="M313 491L415 531L405 394Z" fill="#081a27" stroke="#081a27"></path><path d="M474 113L376 139L363 161Z" fill="#091d2a" stroke="#091d2a"></path><path d="M363 161L281 104L319 224Z" fill="#0d2a39" stroke="#0d2a39"></path><path d="M415 531L536 476L405 394Z" fill="#0c2736" stroke="#0c2736"></path><path d="M512 377L580 333L534 338Z" fill="#091d2a" stroke="#091d2a"></path><path d="M376 139L281 104L363 161Z" fill="#03141f" stroke="#03141f"></path><path d="M596 428L580 333L512 377Z" fill="#081a27" stroke="#081a27"></path><path d="M534 338L529 167L388 330Z" fill="#061723" stroke="#061723"></path><path d="M204 600L327 600L313 491Z" fill="#0b2332" stroke="#0b2332"></path><path d="M415 531L497 600L536 476Z" fill="#0c2736" stroke="#0c2736"></path><path d="M560 181L529 167L534 338Z" fill="#00101c" stroke="#00101c"></path><path d="M376 139L278 0L281 104Z" fill="#0f3141" stroke="#0f3141"></path><path d="M62 199L84 269L193 196Z" fill="#0c2736" stroke="#0c2736"></path><path d="M193 196L84 269L189 268Z" fill="#00101c" stroke="#00101c"></path><path d="M169 364L66 389L196 473Z" fill="#0b2332" stroke="#0b2332"></path><path d="M529 167L474 113L363 161Z" fill="#061723" stroke="#061723"></path><path d="M327 600L415 600L415 531Z" fill="#00101c" stroke="#00101c"></path><path d="M84 269L66 389L169 364Z" fill="#0d2a39" stroke="#0d2a39"></path><path d="M196 473L204 600L313 491Z" fill="#061723" stroke="#061723"></path><path d="M574 496L596 428L536 476Z" fill="#061723" stroke="#061723"></path><path d="M536 476L596 428L512 377Z" fill="#0f3141" stroke="#0f3141"></path><path d="M580 333L560 181L534 338Z" fill="#0c2736" stroke="#0c2736"></path><path d="M529 167L609 121L474 113Z" fill="#0e2e3d" stroke="#0e2e3d"></path><path d="M609 121L560 181L697 223Z" fill="#0b2332" stroke="#0b2332"></path><path d="M497 600L574 496L536 476Z" fill="#0a202e" stroke="#0a202e"></path><path d="M102 526L204 600L196 473Z" fill="#0d2a39" stroke="#0d2a39"></path><path d="M66 389L102 526L196 473Z" fill="#0d2a39" stroke="#0d2a39"></path><path d="M278 0L165 93L281 104Z" fill="#0e2e3d" stroke="#0e2e3d"></path><path d="M281 104L165 93L193 196Z" fill="#0b2332" stroke="#0b2332"></path><path d="M415 600L497 600L415 531Z" fill="#0b2332" stroke="#0b2332"></path><path d="M165 93L62 199L193 196Z" fill="#0f3141" stroke="#0f3141"></path><path d="M84 269L0 314L66 389Z" fill="#03141f" stroke="#03141f"></path><path d="M102 526L122 600L204 600Z" fill="#0c2736" stroke="#0c2736"></path><path d="M62 199L0 314L84 269Z" fill="#00101c" stroke="#00101c"></path><path d="M66 389L0 461L102 526Z" fill="#00101c" stroke="#00101c"></path><path d="M102 526L0 600L122 600Z" fill="#0d2a39" stroke="#0d2a39"></path><path d="M0 314L0 423L66 389Z" fill="#03141f" stroke="#03141f"></path><path d="M437 0L278 0L376 139Z" fill="#0a202e" stroke="#0a202e"></path><path d="M560 181L609 121L529 167Z" fill="#0d2a39" stroke="#0d2a39"></path><path d="M474 113L437 0L376 139Z" fill="#0f3141" stroke="#0f3141"></path><path d="M682 274L560 181L580 333Z" fill="#0d2a39" stroke="#0d2a39"></path><path d="M703 415L580 333L596 428Z" fill="#091d2a" stroke="#091d2a"></path><path d="M703 415L682 274L580 333Z" fill="#091d2a" stroke="#091d2a"></path><path d="M524 0L437 0L474 113Z" fill="#00101c" stroke="#00101c"></path><path d="M0 423L0 461L66 389Z" fill="#0d2a39" stroke="#0d2a39"></path><path d="M176 0L94 76L165 93Z" fill="#0c2736" stroke="#0c2736"></path><path d="M165 93L94 76L62 199Z" fill="#03141f" stroke="#03141f"></path><path d="M62 199L0 173L0 314Z" fill="#0b2332" stroke="#0b2332"></path><path d="M681 495L703 415L596 428Z" fill="#081a27" stroke="#081a27"></path><path d="M681 495L596 428L574 496Z" fill="#091d2a" stroke="#091d2a"></path><path d="M94 76L0 173L62 199Z" fill="#0d2a39" stroke="#0d2a39"></path><path d="M278 0L176 0L165 93Z" fill="#03141f" stroke="#03141f"></path><path d="M621 600L681 495L574 496Z" fill="#0e2e3d" stroke="#0e2e3d"></path><path d="M682 274L697 223L560 181Z" fill="#061723" stroke="#061723"></path><path d="M767 195L697 223L824 267Z" fill="#081a27" stroke="#081a27"></path><path d="M497 600L621 600L574 496Z" fill="#0f3141" stroke="#0f3141"></path><path d="M625 0L524 0L609 121Z" fill="#061723" stroke="#061723"></path><path d="M609 121L524 0L474 113Z" fill="#0e2e3d" stroke="#0e2e3d"></path><path d="M0 461L0 600L102 526Z" fill="#081a27" stroke="#081a27"></path><path d="M697 223L673 78L609 121Z" fill="#0f3141" stroke="#0f3141"></path><path d="M64 0L0 70L94 76Z" fill="#0a202e" stroke="#0a202e"></path><path d="M94 76L0 70L0 173Z" fill="#00101c" stroke="#00101c"></path><path d="M176 0L64 0L94 76Z" fill="#0a202e" stroke="#0a202e"></path><path d="M808 520L778 388L703 415Z" fill="#0d2a39" stroke="#0d2a39"></path><path d="M703 415L778 388L682 274Z" fill="#0b2332" stroke="#0b2332"></path><path d="M697 223L767 195L673 78Z" fill="#0e2e3d" stroke="#0e2e3d"></path><path d="M808 520L703 415L681 495Z" fill="#0e2e3d" stroke="#0e2e3d"></path><path d="M673 78L625 0L609 121Z" fill="#0a202e" stroke="#0a202e"></path><path d="M824 267L697 223L682 274Z" fill="#0d2a39" stroke="#0d2a39"></path><path d="M673 78L732 0L625 0Z" fill="#081a27" stroke="#081a27"></path><path d="M621 600L713 600L681 495Z" fill="#00101c" stroke="#00101c"></path><path d="M64 0L0 0L0 70Z" fill="#0e2e3d" stroke="#0e2e3d"></path><path d="M900 295L824 267L778 388Z" fill="#0a202e" stroke="#0a202e"></path><path d="M778 388L824 267L682 274Z" fill="#0b2332" stroke="#0b2332"></path><path d="M767 195L774 105L673 78Z" fill="#00101c" stroke="#00101c"></path><path d="M900 196L774 105L767 195Z" fill="#081a27" stroke="#081a27"></path><path d="M713 600L764 600L681 495Z" fill="#0c2736" stroke="#0c2736"></path><path d="M764 600L808 520L681 495Z" fill="#0e2e3d" stroke="#0e2e3d"></path><path d="M774 105L732 0L673 78Z" fill="#091d2a" stroke="#091d2a"></path><path d="M900 394L900 295L778 388Z" fill="#03141f" stroke="#03141f"></path><path d="M824 267L900 196L767 195Z" fill="#0c2736" stroke="#0c2736"></path><path d="M774 105L809 0L732 0Z" fill="#0f3141" stroke="#0f3141"></path><path d="M900 485L900 394L778 388Z" fill="#091d2a" stroke="#091d2a"></path><path d="M900 485L778 388L808 520Z" fill="#081a27" stroke="#081a27"></path><path d="M900 600L900 485L808 520Z" fill="#00101c" stroke="#00101c"></path><path d="M900 295L900 196L824 267Z" fill="#0d2a39" stroke="#0d2a39"></path><path d="M900 107L809 0L774 105Z" fill="#0a202e" stroke="#0a202e"></path><path d="M900 196L900 107L774 105Z" fill="#00101c" stroke="#00101c"></path><path d="M764 600L900 600L808 520Z" fill="#091d2a" stroke="#091d2a"></path><path d="M900 107L900 0L809 0Z" fill="#0b2332" stroke="#0b2332"></path></g></svg>